<?xml version="1.0" standalone="no"?>
<!DOCTYPE svg PUBLIC "-//W3C//DTD SVG 20010904//EN"
 "http://www.w3.org/TR/2001/REC-SVG-20010904/DTD/svg10.dtd">
<svg version="1.0" xmlns="http://www.w3.org/2000/svg"
 width="300.000000pt" height="300.000000pt" viewBox="0 0 300.000000 300.000000"
 preserveAspectRatio="xMidYMid meet">
<metadata>
Created by potrace 1.10, written by Peter Selinger 2001-2011
</metadata>
<g transform="translate(0.000000,300.000000) scale(0.050000,-0.050000)"
fill="#000000" stroke="none">
<path d="M2910 5707 c-345 -183 -247 -691 140 -723 413 -34 575 530 206 718
-91 47 -262 49 -346 5z m272 -73 c21 -79 -51 -125 -157 -100 -66 16 -75 25
-75 79 0 50 -7 59 -40 52 -29 -6 -33 -3 -14 10 66 47 270 18 286 -41z m152
-18 c75 -72 85 -126 26 -142 -28 -7 -57 10 -100 59 -115 132 -51 204 74 83z
m-273 -117 c57 -30 52 -140 -9 -197 -47 -44 -156 -47 -179 -5 -75 136 53 274
188 202z m-266 -64 c41 -52 60 -144 39 -190 -45 -101 -114 -26 -114 124 0 93
32 121 75 66z m626 -36 c31 -76 -19 -206 -75 -195 -69 13 -69 196 0 240 39 25
48 19 75 -45z m-156 -107 c32 -49 15 -128 -36 -161 -136 -89 -267 36 -158 150
52 54 161 61 194 11z m-375 -229 c-13 -13 -110 78 -110 104 0 11 27 -5 60 -37
33 -31 55 -62 50 -67z m294 -10 c21 -32 -23 -52 -114 -52 -73 0 -152 27 -129
44 63 48 214 53 243 8z"/>
<path d="M4135 5462 c-19 -23 -47 -42 -61 -42 -15 0 -48 -22 -74 -50 -29 -30
-69 -50 -103 -50 -42 0 -57 -10 -57 -37 0 -21 -32 -80 -72 -131 -82 -108 -76
-120 85 -183 74 -29 88 -30 141 -2 37 19 87 26 138 20 81 -11 157 33 109 62
-12 8 -21 23 -21 35 0 13 11 12 30 -4 80 -67 25 -128 -120 -134 -55 -2 -137
-9 -182 -17 -58 -9 -101 -3 -144 19 -78 40 -86 40 -70 -1 8 -22 -9 -50 -55
-87 l-67 -55 109 -14 c60 -8 163 -28 229 -44 118 -30 120 -30 160 17 29 33 78
54 169 71 300 56 379 337 157 559 -107 107 -242 137 -301 68z"/>
<path d="M3269 4872 c-56 -25 -156 -95 -223 -155 -202 -180 -277 -223 -449
-258 l-157 -31 177 -44 c230 -57 229 -57 290 34 145 220 393 418 393 314 0
-15 -28 -38 -63 -50 -87 -30 -214 -139 -295 -252 -85 -119 -60 -114 218 40
258 144 440 218 466 192 41 -41 -670 -342 -809 -342 -121 0 -586 138 -697 207
-165 103 -304 99 -406 -11 -67 -73 -56 -92 33 -60 118 43 149 25 48 -27 -135
-70 -136 -115 -1 -59 79 33 114 27 48 -9 -23 -12 -42 -31 -42 -42 0 -13 17
-12 43 3 68 36 266 10 374 -50 209 -116 310 -156 516 -203 251 -57 256 -57
692 56 174 45 321 75 328 68 69 -68 -790 -245 -927 -191 -163 64 -157 66 -255
-72 -118 -165 -127 -157 144 -146 214 9 260 18 512 104 306 104 367 110 158
17 -233 -104 -523 -168 -855 -190 l-80 -5 150 -99 c135 -89 505 -269 675 -327
l65 -22 0 96 c0 284 15 328 137 407 377 244 490 409 569 826 14 75 -35 97
-392 178 -43 9 -55 22 -50 55 13 91 -183 119 -335 48z"/>
<path d="M1921 4298 c-26 -11 -87 -14 -135 -6 -97 14 -175 -23 -206 -98 -13
-33 -18 -36 -19 -10 -1 32 -4 32 -61 0 -70 -40 -79 -74 -15 -57 42 10 43 9 8
-17 -44 -33 -24 -78 28 -64 21 5 40 1 44 -10 6 -20 251 26 351 66 25 10 102
19 170 19 68 1 165 8 214 16 l90 14 -90 53 c-156 93 -295 127 -379 94z m-173
-114 l39 -54 -50 45 c-64 58 -70 57 -107 -15 -30 -59 -70 -81 -70 -39 0 12 8
16 19 10 10 -6 24 9 32 34 28 89 83 97 137 19z"/>
<path d="M2406 3433 l-83 -168 86 -128 c192 -287 211 -338 211 -580 0 -119 -7
-217 -15 -217 -8 0 -12 70 -8 156 9 209 -17 291 -159 504 -137 205 -151 213
-166 95 -96 -753 -101 -695 54 -695 84 0 139 -10 165 -31 37 -30 37 -30 -11
-16 -54 16 -239 15 -256 -2 -5 -6 -14 -76 -19 -156 -12 -184 26 -237 252 -355
84 -44 198 -121 253 -172 88 -80 90 -84 20 -33 -239 173 -244 158 -29 -76 245
-265 392 -441 457 -545 54 -88 105 -95 170 -24 62 67 80 63 43 -9 -18 -33 -59
-68 -97 -82 l-66 -24 19 -126 c16 -104 13 -143 -15 -217 -34 -90 -21 -172 28
-172 59 0 160 130 200 256 23 74 56 159 73 190 28 52 27 61 -22 144 -61 103
-455 632 -590 790 -168 197 -186 232 -197 382 -6 95 -2 138 13 138 15 0 23
-42 23 -111 0 -143 26 -191 243 -444 498 -579 682 -907 686 -1215 3 -237 74
-307 193 -188 126 126 178 703 68 745 -50 19 -50 19 -50 -66 0 -43 -8 -83 -17
-89 -10 -6 -13 9 -9 34 5 24 -16 88 -46 144 -31 55 -138 262 -239 460 -164
324 -194 369 -291 448 -113 93 -168 256 -105 312 45 40 53 455 8 431 -66 -36
-73 -23 -16 30 70 65 104 132 134 269 13 61 29 126 34 145 6 23 -6 41 -37 54
-291 119 -513 221 -640 294 -85 48 -157 87 -161 87 -3 0 -43 -75 -89 -167z"/>
</g>
</svg>
