<?xml version="1.0" standalone="no"?>
<!DOCTYPE svg PUBLIC "-//W3C//DTD SVG 20010904//EN"
 "http://www.w3.org/TR/2001/REC-SVG-20010904/DTD/svg10.dtd">
<svg version="1.0" xmlns="http://www.w3.org/2000/svg"
 width="512.000000pt" height="512.000000pt" viewBox="0 0 512.000000 512.000000"
 preserveAspectRatio="xMidYMid meet">

<g transform="translate(0.000000,512.000000) scale(0.100000,-0.100000)"
fill="#000000" stroke="none">
<path d="M397 4923 c2 -21 96 -993 208 -2161 111 -1168 205 -2125 206 -2126 2
-2 393 -109 868 -238 l864 -236 866 236 c476 129 867 236 868 237 4 2 413
4267 413 4300 l0 25 -2149 0 -2149 0 5 -37z m3443 -1093 l0 -360 -920 0 c-870
0 -920 -1 -920 -17 0 -10 7 -81 15 -158 8 -77 15 -146 15 -152 0 -10 187 -13
899 -13 l899 0 -5 -42 c-2 -24 -35 -445 -73 -936 -38 -492 -70 -895 -72 -897
-2 -1 -255 -75 -563 -165 l-560 -162 -585 182 c-322 99 -593 183 -602 186 -17
5 -18 32 -18 390 l0 384 373 -2 372 -3 5 -115 5 -114 224 -69 224 -70 211 68
c116 37 214 70 218 74 5 4 38 476 38 549 0 9 -173 12 -830 12 l-830 0 -4 23
c-3 12 -44 396 -91 852 -47 457 -88 849 -91 873 l-6 42 1336 0 1336 0 0 -360z"/>
</g>
</svg>
