<?xml version="1.0" standalone="no"?>
<!DOCTYPE svg PUBLIC "-//W3C//DTD SVG 20010904//EN"
 "http://www.w3.org/TR/2001/REC-SVG-20010904/DTD/svg10.dtd">
<svg version="1.0" xmlns="http://www.w3.org/2000/svg"
 width="366.000000pt" height="138.000000pt" viewBox="0 0 366.000000 138.000000"
 preserveAspectRatio="xMidYMid meet">

<g transform="translate(0.000000,138.000000) scale(0.100000,-0.100000)"
fill="#000000" stroke="none">
<path d="M1380 1140 c-19 -19 -20 -33 -20 -450 0 -417 1 -431 20 -450 19 -19
33 -20 450 -20 417 0 431 1 450 20 19 19 20 33 20 450 0 417 -1 431 -20 450
-19 19 -33 20 -450 20 -417 0 -431 -1 -450 -20z m498 -530 c4 -166 -3 -223
-34 -260 -45 -53 -138 -52 -199 2 -19 16 -35 34 -35 38 0 5 13 18 30 30 l29
21 29 -21 c16 -12 40 -20 53 -18 24 3 24 3 27 158 1 85 4 161 7 168 3 9 19 12
47 10 l43 -3 3 -125z m223 120 c19 -6 46 -22 60 -36 l24 -25 -25 -19 c-30 -24
-44 -25 -60 -5 -28 34 -96 3 -73 -33 5 -10 43 -35 82 -57 79 -44 100 -70 101
-128 0 -29 -8 -46 -34 -75 -34 -36 -36 -37 -104 -37 -74 0 -108 15 -139 62
-13 19 -11 23 17 43 l31 22 28 -26 c45 -43 119 -29 109 21 -2 11 -32 33 -73
54 -76 39 -105 74 -105 126 0 51 21 84 65 104 47 22 49 22 96 9z"/>
</g>
</svg>
