<?xml version="1.0" standalone="no"?>
<!DOCTYPE svg PUBLIC "-//W3C//DTD SVG 20010904//EN"
 "http://www.w3.org/TR/2001/REC-SVG-20010904/DTD/svg10.dtd">
<svg version="1.0" xmlns="http://www.w3.org/2000/svg"
 width="32.000000pt" height="32.000000pt" viewBox="0 0 32.000000 32.000000"
 preserveAspectRatio="xMidYMid meet">
<metadata>
Created by potrace 1.16, written by Peter Selinger 2001-2019
</metadata>
<g transform="translate(0.000000,32.000000) scale(0.100000,-0.100000)"
fill="#000000" stroke="none">
<path d="M17 274 c-4 -4 -7 -51 -7 -105 0 -105 2 -109 61 -109 16 0 29 -4 29
-10 0 -6 27 -10 60 -10 33 0 60 4 60 10 0 6 15 10 33 10 55 0 58 7 55 116 l-3
99 -141 3 c-77 1 -143 -1 -147 -4z m263 -99 l0 -75 -120 0 -120 0 0 75 0 75
120 0 120 0 0 -75z"/>
</g>
</svg>
