<?xml version="1.0" standalone="no"?>
<!DOCTYPE svg PUBLIC "-//W3C//DTD SVG 20010904//EN"
 "http://www.w3.org/TR/2001/REC-SVG-20010904/DTD/svg10.dtd">
<svg version="1.0" xmlns="http://www.w3.org/2000/svg"
 width="32.000000pt" height="32.000000pt" viewBox="0 0 32.000000 32.000000"
 preserveAspectRatio="xMidYMid meet">

<g transform="translate(0.000000,32.000000) scale(0.100000,-0.100000)"
fill="#000000" stroke="none">
<path d="M121 267 c-52 -18 -74 -56 -79 -132 -5 -75 6 -95 49 -95 28 0 29 2
29 50 0 49 0 50 -31 50 -30 0 -31 1 -25 33 10 49 48 82 96 82 48 0 86 -33 96
-82 6 -32 5 -33 -25 -33 -31 0 -31 -1 -31 -50 0 -48 1 -50 28 -50 40 0 52 17
51 75 -1 120 -67 184 -158 152z"/>
</g>
</svg>
