<?xml version="1.0" standalone="no"?>
<!DOCTYPE svg PUBLIC "-//W3C//DTD SVG 20010904//EN"
 "http://www.w3.org/TR/2001/REC-SVG-20010904/DTD/svg10.dtd">
<svg version="1.0" xmlns="http://www.w3.org/2000/svg"
 width="236.000000pt" height="148.000000pt" viewBox="0 0 236.000000 148.000000"
 preserveAspectRatio="xMidYMid meet">

<g transform="translate(0.000000,148.000000) scale(0.100000,-0.100000)"
fill="#000000" stroke="none">
<path d="M440 1431 c-14 -4 -31 -19 -38 -34 -10 -20 -21 -27 -41 -27 -80 0
-136 -112 -226 -450 -77 -286 -105 -480 -85 -585 25 -131 101 -199 221 -198
137 2 261 126 319 321 12 39 24 72 27 72 2 0 21 -13 41 -29 86 -68 212 -55
274 29 l22 30 172 0 c171 0 172 0 188 -25 28 -42 101 -78 160 -78 59 0 87 12
133 56 18 17 34 29 36 26 2 -2 16 -42 31 -88 64 -201 177 -310 322 -311 221
-1 273 226 170 735 -43 210 -75 312 -121 390 -54 88 -72 105 -117 105 -32 0
-40 4 -48 25 -12 33 -46 45 -124 45 -81 0 -122 -14 -130 -46 -5 -20 -12 -24
-46 -24 -21 0 -42 5 -45 10 -4 6 -143 10 -385 10 -242 0 -381 -4 -385 -10 -3
-5 -26 -10 -50 -10 -39 0 -46 4 -59 29 -9 16 -26 31 -38 35 -30 8 -146 6 -178
-3z m322 -288 l3 -208 374 -3 c267 -2 378 1 387 9 11 9 14 54 14 210 l0 199
208 0 c237 0 219 6 280 -95 44 -73 77 -180 117 -376 103 -504 57 -720 -152
-719 -141 1 -242 107 -307 321 -22 73 -25 94 -17 131 15 64 -10 150 -55 189
-58 51 -160 66 -229 33 -75 -35 -122 -126 -109 -209 l6 -45 -156 0 -157 0 7
50 c17 131 -102 245 -232 221 -49 -9 -72 -22 -106 -58 -51 -53 -69 -128 -49
-199 19 -66 -64 -279 -138 -353 -131 -131 -304 -113 -369 39 -21 47 -19 207 2
330 33 187 128 523 184 652 40 90 33 88 277 88 l215 0 2 -207z m95 -330 c19
-9 49 -35 65 -57 27 -38 29 -47 26 -108 -4 -75 -21 -107 -78 -145 -45 -31
-127 -31 -181 -1 -44 25 -89 102 -89 152 0 37 30 105 56 128 56 49 137 62 201
31z m709 -8 c111 -65 111 -239 -1 -302 -48 -27 -131 -31 -175 -8 -82 42 -116
167 -68 250 48 82 159 110 244 60z"/>
<path d="M697 1283 c-12 -11 -8 -50 6 -62 19 -15 27 -4 27 36 0 31 -16 44 -33
26z"/>
<path d="M1572 1253 c2 -21 8 -38 13 -38 6 0 11 17 13 38 3 29 0 37 -13 37
-13 0 -16 -8 -13 -37z"/>
<path d="M365 1241 c-78 -35 -125 -113 -125 -209 0 -122 101 -222 225 -222 95
0 192 70 220 158 10 34 8 113 -5 146 -29 78 -117 147 -185 145 -29 -1 -29 -1
5 -8 51 -11 93 -35 127 -75 114 -129 33 -335 -140 -353 -45 -5 -64 -1 -109 20
-193 88 -161 357 49 406 36 8 36 9 8 10 -16 0 -48 -8 -70 -18z"/>
<path d="M1765 1245 l-30 -14 30 7 c17 4 54 7 83 6 31 0 47 3 40 8 -20 12 -90
9 -123 -7z"/>
<path d="M1936 1221 c63 -38 114 -124 114 -192 0 -114 -108 -219 -226 -219
-48 0 -133 49 -168 98 -24 34 -31 55 -34 106 -5 76 13 121 72 180 l39 39 -33
-19 c-70 -40 -109 -143 -89 -233 15 -69 56 -123 120 -155 87 -43 176 -31 250
33 86 73 104 185 47 281 -31 50 -86 100 -112 100 -6 0 3 -9 20 -19z"/>
<path d="M437 1213 c-4 -3 -7 -11 -7 -17 0 -6 5 -5 12 2 6 6 9 14 7 17 -3 3
-9 2 -12 -2z"/>
<path d="M480 1200 c0 -5 5 -10 11 -10 5 0 7 5 4 10 -3 6 -8 10 -11 10 -2 0
-4 -4 -4 -10z"/>
<path d="M1816 1194 c-9 -24 -7 -31 4 -14 9 13 11 13 20 0 11 -17 13 -10 4 14
-3 9 -10 16 -14 16 -4 0 -11 -7 -14 -16z"/>
<path d="M1773 1158 c2 -32 18 -42 25 -16 3 9 1 9 -6 -1 -8 -12 -12 -8 -16 17
l-6 32 3 -32z"/>
<path d="M420 1127 c0 -21 8 -41 20 -52 19 -17 21 -17 40 0 12 11 20 31 20 52
0 32 -1 33 -40 33 -39 0 -40 -1 -40 -33z"/>
<path d="M1863 1147 c2 -20 19 -25 26 -6 2 6 -1 9 -7 5 -6 -3 -13 0 -16 6 -3
7 -5 5 -3 -5z"/>
<path d="M1813 1103 c9 -2 23 -2 30 0 6 3 -1 5 -18 5 -16 0 -22 -2 -12 -5z"/>
<path d="M300 1065 c-1 -5 -2 -18 -1 -27 1 -10 -2 -18 -8 -18 -5 0 -12 8 -14
18 -4 14 -5 14 -6 1 -1 -18 26 -46 35 -36 3 3 4 20 1 39 -2 18 -5 29 -7 23z"/>
<path d="M340 1035 c0 -33 2 -35 33 -35 17 0 41 7 51 15 19 14 19 15 1 35 -11
12 -31 20 -52 20 -31 0 -33 -2 -33 -35z"/>
<path d="M505 1050 c-25 -28 -5 -50 46 -50 38 0 39 1 39 35 0 33 -2 35 -33 35
-21 0 -41 -8 -52 -20z"/>
<path d="M1636 1054 c-9 -25 -6 -41 5 -19 7 16 8 13 6 -14 -1 -19 3 -36 8 -38
6 -2 9 15 7 42 -4 46 -15 58 -26 29z"/>
<path d="M1718 1024 c-2 -19 0 -37 4 -40 4 -3 8 13 8 35 0 51 -6 53 -12 5z"/>
<path d="M1990 1056 c0 -2 8 -10 18 -17 15 -13 16 -12 3 4 -13 16 -21 21 -21
13z"/>
<path d="M437 992 c-10 -10 -17 -33 -17 -50 0 -31 2 -32 40 -32 39 0 40 1 40
33 0 20 -8 41 -18 50 -23 21 -25 21 -45 -1z"/>
<path d="M1787 942 c-18 -19 -23 -67 -9 -76 5 -3 6 8 4 25 -3 19 2 37 13 49
10 11 16 20 13 20 -3 0 -12 -8 -21 -18z"/>
<path d="M1872 930 c7 -10 14 -18 15 -16 6 6 -9 36 -18 36 -5 0 -4 -9 3 -20z"/>
<path d="M1090 711 c-24 -45 -5 -81 42 -81 18 0 33 8 44 25 15 23 15 27 0 50
-21 31 -70 35 -86 6z"/>
<path d="M714 781 c-105 -48 -97 -210 13 -257 44 -19 69 -18 119 6 69 34 94
119 57 197 -18 38 -77 73 -123 73 -14 0 -43 -9 -66 -19z"/>
<path d="M1393 770 c-87 -53 -82 -193 8 -242 67 -36 155 -15 195 48 39 58 14
162 -46 198 -39 22 -117 21 -157 -4z"/>
</g>
</svg>
