<?xml version="1.0" standalone="no"?>
<!DOCTYPE svg PUBLIC "-//W3C//DTD SVG 20010904//EN"
 "http://www.w3.org/TR/2001/REC-SVG-20010904/DTD/svg10.dtd">
<svg version="1.0" xmlns="http://www.w3.org/2000/svg"
 width="450.000000pt" height="369.000000pt" viewBox="0 0 450.000000 369.000000"
 preserveAspectRatio="xMidYMid meet">
<metadata>
Created by potrace 1.10, written by Peter Selinger 2001-2011
</metadata>
<g transform="translate(0.000000,369.000000) scale(0.100000,-0.100000)"
fill="#ff0000" stroke="none">
<path d="M4200 3610 c-3 -73 1 -1263 4 -1268 5 -8 214 -8 221 0 7 7 7 1259 0
1266 -7 7 -225 9 -225 2z"/>
<path d="M1365 3271 c-3 -6 -18 -11 -32 -11 -44 0 -151 -59 -206 -114 -70 -71
-111 -156 -123 -256 -1 -13 -6 -45 -9 -71 -9 -67 19 -208 56 -277 30 -56 139
-172 162 -172 7 0 24 -6 39 -14 14 -8 46 -17 70 -21 24 -3 66 -11 94 -17 61
-13 205 10 273 43 51 24 148 120 157 154 3 14 10 25 14 25 16 0 22 41 9 56
-10 12 -31 15 -93 13 -83 -2 -105 -8 -135 -37 -70 -67 -70 -67 -176 -67 -89 0
-104 3 -133 24 -41 29 -78 87 -87 135 -13 67 -20 66 341 66 l324 0 -6 88 c-3
48 -12 112 -21 142 -45 154 -157 272 -284 301 -76 17 -225 23 -234 10z m148
-178 c73 -23 113 -68 141 -160 11 -36 -27 -43 -215 -42 -191 1 -206 6 -193 63
9 43 89 119 144 139 58 20 62 20 123 0z"/>
<path d="M2310 3261 c-67 -24 -91 -39 -137 -87 -73 -77 -109 -169 -129 -332
-7 -56 15 -187 42 -249 8 -17 14 -36 14 -42 0 -6 4 -11 9 -11 5 0 13 -10 17
-22 8 -28 80 -98 99 -98 8 0 15 -3 15 -7 0 -5 26 -16 58 -26 62 -19 225 -25
245 -9 7 5 25 12 40 16 16 4 34 11 40 17 49 40 62 49 73 49 49 0 42 -145 -11
-224 -46 -69 -90 -91 -174 -89 -89 2 -114 16 -183 103 -19 24 -24 25 -129 25
-111 -1 -143 -10 -122 -37 6 -7 14 -29 18 -48 5 -24 26 -53 67 -92 32 -32 64
-58 71 -58 6 0 25 -7 41 -15 26 -14 96 -26 243 -42 32 -3 58 -1 66 5 7 6 39
14 70 18 32 4 60 11 63 15 3 5 14 9 24 9 10 0 25 6 32 13 7 6 30 23 50 37 20
13 47 41 60 62 13 21 26 38 29 38 4 0 10 17 14 38 4 20 12 43 18 51 16 18 20
968 5 977 -14 9 -203 8 -218 -1 -6 -4 -9 -12 -7 -18 2 -7 0 -20 -5 -30 -12
-23 -37 -15 -78 23 -18 16 -48 32 -68 35 -20 4 -47 10 -60 16 -35 14 -151 8
-202 -10z m225 -161 c3 -5 17 -10 31 -10 16 0 43 -17 73 -45 60 -56 84 -119
84 -225 1 -126 -59 -221 -170 -265 -38 -15 -45 -15 -99 1 -63 18 -115 60 -129
104 -4 14 -13 28 -19 32 -7 5 -11 50 -11 126 0 133 12 171 74 226 59 53 149
83 166 56z"/>
<path d="M3435 3264 c-98 -35 -118 -48 -194 -125 -51 -51 -67 -77 -112 -173
-18 -37 -20 -306 -3 -327 6 -8 14 -31 18 -51 4 -21 10 -38 14 -38 4 0 16 -16
27 -36 24 -45 131 -143 165 -151 14 -3 30 -9 35 -13 39 -30 211 -42 310 -21
142 29 218 90 293 230 22 43 12 48 -97 47 -100 -1 -101 -1 -130 -33 -54 -59
-101 -76 -194 -71 -60 3 -91 10 -116 25 -41 26 -76 84 -85 140 -5 35 -3 44 13
53 12 6 133 10 324 10 341 0 335 -1 323 68 -4 20 -12 71 -19 112 -16 96 -52
172 -114 236 -65 67 -115 98 -192 118 -76 19 -211 19 -266 0z m180 -164 c3 -5
16 -10 29 -10 43 0 126 -112 126 -170 0 -12 -10 -20 -32 -24 -50 -9 -331 -5
-350 6 -26 13 -23 67 7 110 27 40 82 78 113 78 11 0 24 5 27 10 3 6 21 10 40
10 19 0 37 -4 40 -10z"/>
<path d="M122 3246 c-7 -12 -7 -145 1 -152 3 -4 84 -6 179 -5 100 1 185 -2
201 -8 29 -11 36 -43 15 -65 -24 -24 -146 -161 -174 -196 -16 -19 -56 -64 -90
-100 -168 -178 -170 -182 -168 -284 1 -48 4 -90 8 -93 7 -7 803 -6 815 1 7 5
8 67 2 166 -1 13 -32 15 -209 16 -211 1 -262 6 -262 25 0 6 33 48 73 93 69 76
93 103 147 166 12 14 45 50 73 80 29 30 70 78 92 105 22 28 45 56 52 63 14 15
19 192 6 192 -218 6 -756 3 -761 -4z"/>
<path d="M87 1448 c-7 -187 -5 -1315 3 -1327 4 -8 624 -11 2165 -11 1187 0
2161 2 2163 5 9 9 10 63 11 755 1 371 -2 676 -6 677 -5 2 -973 4 -2153 5
-1180 2 -2152 7 -2161 11 -15 7 -17 -5 -22 -115z m689 -52 c18 -14 19 -33 22
-538 1 -288 0 -533 -3 -546 -13 -51 -37 -62 -141 -62 -52 0 -104 5 -115 10
-19 11 -19 25 -19 565 1 483 3 556 16 570 21 21 211 22 240 1z m873 -8 c60
-18 86 -33 129 -73 59 -54 97 -107 108 -152 4 -15 12 -34 18 -42 18 -23 14
-163 -7 -194 -9 -14 -17 -35 -17 -47 0 -11 -4 -20 -10 -20 -5 0 -12 -11 -16
-25 -8 -31 -89 -107 -145 -135 -49 -25 -124 -36 -314 -49 -71 -5 -131 -10
-132 -10 -2 -1 -3 -82 -3 -180 0 -226 8 -214 -146 -209 -62 2 -118 8 -123 13
-7 7 -11 199 -12 565 0 518 1 555 17 567 14 10 86 13 298 13 262 0 285 -1 355
-22z m952 11 c20 -10 69 -105 69 -133 0 -8 4 -17 9 -21 5 -3 13 -20 17 -37 3
-18 10 -39 14 -48 20 -40 38 -88 44 -117 4 -18 12 -35 17 -38 5 -4 9 -14 9
-23 1 -9 9 -35 20 -57 11 -22 19 -48 20 -57 0 -9 6 -29 14 -45 27 -51 46 -101
46 -116 0 -9 4 -18 9 -21 5 -3 12 -22 16 -42 3 -20 10 -44 15 -53 20 -36 40
-85 40 -95 1 -6 9 -29 20 -51 11 -22 19 -45 20 -51 0 -7 7 -25 15 -40 21 -41
19 -81 -4 -94 -11 -5 -65 -10 -121 -10 -94 0 -103 2 -125 25 -14 13 -25 35
-25 49 0 14 -4 28 -10 31 -5 3 -10 13 -10 22 0 13 -19 64 -39 103 -7 13 -40
15 -201 15 -215 0 -213 1 -230 -68 -6 -23 -18 -56 -26 -74 -8 -17 -14 -38 -14
-46 0 -9 -12 -25 -26 -36 -23 -18 -41 -21 -118 -21 -121 0 -136 5 -136 42 0
26 24 93 50 140 6 10 10 23 10 30 1 7 9 31 20 53 11 22 19 45 20 51 0 7 7 25
15 40 8 16 15 37 15 46 0 9 5 20 10 23 6 3 10 14 10 23 0 9 6 29 14 43 7 15
23 55 35 90 12 35 25 73 30 84 5 11 18 47 31 80 12 33 28 74 36 92 8 17 14 36
14 42 0 6 4 19 10 29 22 41 50 112 50 131 0 11 5 23 10 26 6 3 10 15 10 26 0
11 11 31 25 44 23 23 31 25 130 25 59 0 115 -5 126 -11z m1349 2 c24 -7 25
-10 28 -100 3 -85 1 -96 -19 -117 l-22 -24 -274 0 c-175 0 -273 -4 -274 -10
-3 -50 -1 -182 4 -186 3 -3 116 -5 251 -5 160 1 253 -2 266 -9 18 -9 20 -21
20 -100 0 -68 -4 -92 -16 -105 -14 -14 -48 -16 -266 -14 -138 0 -253 -3 -257
-8 -3 -4 -5 -61 -3 -125 l3 -118 290 0 c181 0 298 -4 310 -10 16 -9 19 -22 19
-89 0 -69 -3 -81 -25 -105 l-24 -26 -399 0 c-328 0 -402 2 -418 14 -18 14 -19
32 -19 566 0 534 1 552 19 566 16 12 86 14 400 13 210 -1 392 -4 406 -8z"/>
<path d="M1283 1179 c-22 -8 -23 -12 -23 -149 l0 -140 150 0 151 0 35 34 c31
30 36 43 41 93 6 73 -17 120 -71 146 -42 20 -243 31 -283 16z"/>
<path d="M2466 1049 c-2 -8 -7 -27 -11 -44 -5 -26 -15 -51 -45 -115 -4 -9 -11
-31 -15 -50 -4 -19 -11 -40 -15 -45 -5 -6 -10 -24 -12 -40 l-3 -30 80 -7 c110
-9 145 -2 145 27 0 12 -7 36 -15 51 -8 16 -15 38 -15 49 0 11 -7 29 -15 39 -8
11 -15 32 -15 46 0 14 -4 30 -9 36 -6 5 -12 22 -15 38 -7 37 -33 67 -40 45z"/>
</g>
</svg>
